<?xml version="1.0" encoding="UTF-8"?>
<svg width="171px" height="43px" viewBox="0 0 171 43" version="1.1" xmlns="http://www.w3.org/2000/svg" xmlns:xlink="http://www.w3.org/1999/xlink">
    <!-- Generator: Sketch 48.1 (47250) - http://www.bohemiancoding.com/sketch -->
    <title>the-example-app-logo-python</title>
    <desc>Created with Sketch.</desc>
    <defs></defs>
    <g id="Page-1" stroke="none" stroke-width="1" fill="none" fill-rule="evenodd">
        <g id="the-example-app-logo-python">
            <g id="Group" transform="translate(0.000000, 2.000000)" fill-rule="nonzero">
                <polygon id="Shape" fill="#D9453F" points="3.75 37 3.75 29.9 28 29.9 28 37"></polygon>
                <circle id="Oval" fill="#F5A623" cx="9.3" cy="14.3" r="9.3"></circle>
                <polygon id="Shape" fill="#3C80CF" points="35 27.6 19 0.4 35 0.4"></polygon>
            </g>
            <g id="Group" transform="translate(45.000000, 0.000000)">
                <g transform="translate(0.000000, 22.000000)" fill="#000000" id="example-app">
                    <path d="M8.14,9.88 C8.14,9.3599974 7.9766683,8.9133352 7.65,8.54 C7.3233317,8.1666648 6.8333366,7.98 6.18,7.98 C5.8599984,7.98 5.566668,8.0299995 5.3,8.13 C5.033332,8.2300005 4.800001,8.3666658 4.6,8.54 C4.399999,8.7133342 4.2400006,8.9166655 4.12,9.15 C3.9999994,9.3833345 3.9333334,9.6266654 3.92,9.88 L8.14,9.88 Z M11.16,11.14 L11.16,11.54 C11.16,11.673334 11.1533334,11.7999994 11.14,11.92 L3.92,11.92 C3.9466668,12.2000014 4.0299993,12.4533322 4.17,12.68 C4.3100007,12.9066678 4.4899989,13.1033325 4.71,13.27 C4.9300011,13.4366675 5.1766653,13.5666662 5.45,13.66 C5.7233347,13.7533338 6.0066652,13.8 6.3,13.8 C6.8200026,13.8 7.2599982,13.7033343 7.62,13.51 C7.9800018,13.3166657 8.2733322,13.0666682 8.5,12.76 L10.78,14.2 C10.313331,14.8800034 9.6966705,15.4033315 8.93,15.77 C8.1633295,16.1366685 7.2733384,16.32 6.26,16.32 C5.5133296,16.32 4.80667,16.2033345 4.14,15.97 C3.47333,15.7366655 2.8900025,15.3966689 2.39,14.95 C1.8899975,14.5033311 1.4966681,13.9533366 1.21,13.3 C0.9233319,12.6466634 0.78,11.9000042 0.78,11.06 C0.78,10.2466626 0.9199986,9.5100033 1.2,8.85 C1.4800014,8.1899967 1.8599976,7.6300023 2.34,7.17 C2.8200024,6.7099977 3.3866634,6.3533346 4.04,6.1 C4.6933366,5.8466654 5.3999962,5.72 6.16,5.72 C6.893337,5.72 7.5666636,5.8433321 8.18,6.09 C8.7933364,6.3366679 9.3199978,6.693331 9.76,7.16 C10.2000022,7.626669 10.5433321,8.19333 10.79,8.86 C11.0366679,9.52667 11.16,10.2866624 11.16,11.14 Z M19.56,16 L17.42,12.94 L15.22,16 L11.42,16 L15.4,10.78 L11.8,6.04 L15.62,6.04 L17.48,8.7 L19.36,6.04 L23.06,6.04 L19.48,10.78 L23.42,16 L19.56,16 Z M30.52,11.66 L30.1,11.66 C29.7399982,11.66 29.3766685,11.6766665 29.01,11.71 C28.6433315,11.7433335 28.3166681,11.8066662 28.03,11.9 C27.7433319,11.9933338 27.5066676,12.1299991 27.32,12.31 C27.1333324,12.4900009 27.04,12.7266652 27.04,13.02 C27.04,13.2066676 27.0833329,13.366666 27.17,13.5 C27.2566671,13.633334 27.366666,13.7399996 27.5,13.82 C27.633334,13.9000004 27.7866658,13.9566665 27.96,13.99 C28.1333342,14.0233335 28.2999992,14.04 28.46,14.04 C29.12667,14.04 29.6366649,13.8566685 29.99,13.49 C30.3433351,13.1233315 30.52,12.6266698 30.52,12 L30.52,11.66 Z M24.5,7.4 C25.0866696,6.8399972 25.7699961,6.4200014 26.55,6.14 C27.3300039,5.8599986 28.1266626,5.72 28.94,5.72 C29.7800042,5.72 30.4899971,5.8233323 31.07,6.03 C31.6500029,6.2366677 32.1199982,6.5566645 32.48,6.99 C32.8400018,7.4233355 33.1033325,7.9699967 33.27,8.63 C33.4366675,9.2900033 33.52,10.0733288 33.52,10.98 L33.52,16 L30.52,16 L30.52,14.94 L30.46,14.94 C30.2066654,15.3533354 29.8233359,15.6733322 29.31,15.9 C28.7966641,16.1266678 28.240003,16.24 27.64,16.24 C27.239998,16.24 26.8266688,16.1866672 26.4,16.08 C25.9733312,15.9733328 25.5833351,15.8000012 25.23,15.56 C24.8766649,15.3199988 24.5866678,15.000002 24.36,14.6 C24.1333322,14.199998 24.02,13.7066696 24.02,13.12 C24.02,12.3999964 24.2166647,11.8200022 24.61,11.38 C25.0033353,10.9399978 25.5099969,10.6000012 26.13,10.36 C26.7500031,10.1199988 27.4399962,9.9600004 28.2,9.88 C28.9600038,9.7999996 29.6999964,9.76 30.42,9.76 L30.42,9.6 C30.42,9.1066642 30.2466684,8.7433345 29.9,8.51 C29.5533316,8.2766655 29.1266692,8.16 28.62,8.16 C28.153331,8.16 27.7033355,8.259999 27.27,8.46 C26.8366645,8.660001 26.4666682,8.8999986 26.16,9.18 L24.5,7.4 Z M48.68,16 L48.68,10.56 C48.68,10.2799986 48.6600002,10.0100013 48.62,9.75 C48.5799998,9.4899987 48.5066672,9.2666676 48.4,9.08 C48.2933328,8.8933324 48.1500009,8.7433339 47.97,8.63 C47.7899991,8.5166661 47.5533348,8.46 47.26,8.46 C46.9799986,8.46 46.7366677,8.5199994 46.53,8.64 C46.3233323,8.7600006 46.1500007,8.919999 46.01,9.12 C45.8699993,9.320001 45.766667,9.5499987 45.7,9.81 C45.633333,10.0700013 45.6,10.3399986 45.6,10.62 L45.6,16 L42.32,16 L42.32,10.32 C42.32,9.7466638 42.2066678,9.293335 41.98,8.96 C41.7533322,8.626665 41.3933358,8.46 40.9,8.46 C40.3799974,8.46 39.9766681,8.6666646 39.69,9.08 C39.4033319,9.4933354 39.26,9.999997 39.26,10.6 L39.26,16 L35.96,16 L35.96,6.04 L39.14,6.04 L39.14,7.42 L39.18,7.42 C39.3000006,7.2066656 39.4499991,7.000001 39.63,6.8 C39.8100009,6.599999 40.0266654,6.4233341 40.28,6.27 C40.5333346,6.1166659 40.8166651,5.9933338 41.13,5.9 C41.4433349,5.8066662 41.7866648,5.76 42.16,5.76 C42.8800036,5.76 43.4899975,5.9066652 43.99,6.2 C44.4900025,6.4933348 44.8799986,6.9133306 45.16,7.46 C45.493335,6.9399974 45.9199974,6.5266682 46.44,6.22 C46.9600026,5.9133318 47.5933296,5.76 48.34,5.76 C49.0200034,5.76 49.5899977,5.8833321 50.05,6.13 C50.5100023,6.3766679 50.8799986,6.6966647 51.16,7.09 C51.4400014,7.4833353 51.6433327,7.9233309 51.77,8.41 C51.8966673,8.8966691 51.96,9.373331 51.96,9.84 L51.96,16 L48.68,16 Z M65.52,10.98 C65.52,11.6733368 65.4133344,12.3399968 65.2,12.98 C64.9866656,13.6200032 64.6766687,14.1833309 64.27,14.67 C63.8633313,15.1566691 63.3666696,15.5466652 62.78,15.84 C62.1933304,16.1333348 61.5266704,16.28 60.78,16.28 C60.1666636,16.28 59.5866694,16.1566679 59.04,15.91 C58.4933306,15.6633321 58.0666682,15.3266688 57.76,14.9 L57.72,14.9 L57.72,20.8 L54.44,20.8 L54.44,6.04 L57.56,6.04 L57.56,7.26 L57.62,7.26 C57.9266682,6.859998 58.3499973,6.5100015 58.89,6.21 C59.4300027,5.9099985 60.066663,5.76 60.8,5.76 C61.5200036,5.76 62.1733304,5.8999986 62.76,6.18 C63.3466696,6.4600014 63.8433313,6.8399976 64.25,7.32 C64.6566687,7.8000024 64.9699989,8.3566635 65.19,8.99 C65.4100011,9.6233365 65.52,10.2866632 65.52,10.98 Z M62.34,10.98 C62.34,10.6599984 62.2900005,10.3466682 62.19,10.04 C62.0899995,9.7333318 61.9433343,9.4633345 61.75,9.23 C61.5566657,8.9966655 61.3133348,8.8066674 61.02,8.66 C60.7266652,8.5133326 60.3866686,8.44 60,8.44 C59.6266648,8.44 59.2933348,8.5133326 59,8.66 C58.7066652,8.8066674 58.4566677,8.9999988 58.25,9.24 C58.0433323,9.4800012 57.8833339,9.7533318 57.77,10.06 C57.6566661,10.3666682 57.6,10.6799984 57.6,11 C57.6,11.3200016 57.6566661,11.6333318 57.77,11.94 C57.8833339,12.2466682 58.0433323,12.5199988 58.25,12.76 C58.4566677,13.0000012 58.7066652,13.1933326 59,13.34 C59.2933348,13.4866674 59.6266648,13.56 60,13.56 C60.3866686,13.56 60.7266652,13.4866674 61.02,13.34 C61.3133348,13.1933326 61.5566657,13.0000012 61.75,12.76 C61.9433343,12.5199988 62.0899995,12.2433349 62.19,11.93 C62.2900005,11.6166651 62.34,11.3000016 62.34,10.98 Z M67.62,16 L67.62,0.88 L70.94,0.88 L70.94,16 L67.62,16 Z M80.4,9.88 C80.4,9.3599974 80.2366683,8.9133352 79.91,8.54 C79.5833317,8.1666648 79.0933366,7.98 78.44,7.98 C78.1199984,7.98 77.826668,8.0299995 77.56,8.13 C77.293332,8.2300005 77.060001,8.3666658 76.86,8.54 C76.659999,8.7133342 76.5000006,8.9166655 76.38,9.15 C76.2599994,9.3833345 76.1933334,9.6266654 76.18,9.88 L80.4,9.88 Z M83.42,11.14 L83.42,11.54 C83.42,11.673334 83.4133334,11.7999994 83.4,11.92 L76.18,11.92 C76.2066668,12.2000014 76.2899993,12.4533322 76.43,12.68 C76.5700007,12.9066678 76.7499989,13.1033325 76.97,13.27 C77.1900011,13.4366675 77.4366653,13.5666662 77.71,13.66 C77.9833347,13.7533338 78.2666652,13.8 78.56,13.8 C79.0800026,13.8 79.5199982,13.7033343 79.88,13.51 C80.2400018,13.3166657 80.5333322,13.0666682 80.76,12.76 L83.04,14.2 C82.573331,14.8800034 81.9566705,15.4033315 81.19,15.77 C80.4233295,16.1366685 79.5333384,16.32 78.52,16.32 C77.7733296,16.32 77.06667,16.2033345 76.4,15.97 C75.73333,15.7366655 75.1500025,15.3966689 74.65,14.95 C74.1499975,14.5033311 73.7566681,13.9533366 73.47,13.3 C73.1833319,12.6466634 73.04,11.9000042 73.04,11.06 C73.04,10.2466626 73.1799986,9.5100033 73.46,8.85 C73.7400014,8.1899967 74.1199976,7.6300023 74.6,7.17 C75.0800024,6.7099977 75.6466634,6.3533346 76.3,6.1 C76.9533366,5.8466654 77.6599962,5.72 78.42,5.72 C79.153337,5.72 79.8266636,5.8433321 80.44,6.09 C81.0533364,6.3366679 81.5799978,6.693331 82.02,7.16 C82.4600022,7.626669 82.8033321,8.19333 83.05,8.86 C83.2966679,9.52667 83.42,10.2866624 83.42,11.14 Z M96.34,11.66 L95.92,11.66 C95.5599982,11.66 95.1966685,11.6766665 94.83,11.71 C94.4633315,11.7433335 94.1366681,11.8066662 93.85,11.9 C93.5633319,11.9933338 93.3266676,12.1299991 93.14,12.31 C92.9533324,12.4900009 92.86,12.7266652 92.86,13.02 C92.86,13.2066676 92.9033329,13.366666 92.99,13.5 C93.0766671,13.633334 93.186666,13.7399996 93.32,13.82 C93.453334,13.9000004 93.6066658,13.9566665 93.78,13.99 C93.9533342,14.0233335 94.1199992,14.04 94.28,14.04 C94.94667,14.04 95.4566649,13.8566685 95.81,13.49 C96.1633351,13.1233315 96.34,12.6266698 96.34,12 L96.34,11.66 Z M90.32,7.4 C90.9066696,6.8399972 91.5899961,6.4200014 92.37,6.14 C93.1500039,5.8599986 93.9466626,5.72 94.76,5.72 C95.6000042,5.72 96.3099971,5.8233323 96.89,6.03 C97.4700029,6.2366677 97.9399982,6.5566645 98.3,6.99 C98.6600018,7.4233355 98.9233325,7.9699967 99.09,8.63 C99.2566675,9.2900033 99.34,10.0733288 99.34,10.98 L99.34,16 L96.34,16 L96.34,14.94 L96.28,14.94 C96.0266654,15.3533354 95.6433359,15.6733322 95.13,15.9 C94.6166641,16.1266678 94.060003,16.24 93.46,16.24 C93.059998,16.24 92.6466688,16.1866672 92.22,16.08 C91.7933312,15.9733328 91.4033351,15.8000012 91.05,15.56 C90.6966649,15.3199988 90.4066678,15.000002 90.18,14.6 C89.9533322,14.199998 89.84,13.7066696 89.84,13.12 C89.84,12.3999964 90.0366647,11.8200022 90.43,11.38 C90.8233353,10.9399978 91.3299969,10.6000012 91.95,10.36 C92.5700031,10.1199988 93.2599962,9.9600004 94.02,9.88 C94.7800038,9.7999996 95.5199964,9.76 96.24,9.76 L96.24,9.6 C96.24,9.1066642 96.0666684,8.7433345 95.72,8.51 C95.3733316,8.2766655 94.9466692,8.16 94.44,8.16 C93.973331,8.16 93.5233355,8.259999 93.09,8.46 C92.6566645,8.660001 92.2866682,8.8999986 91.98,9.18 L90.32,7.4 Z M112.86,10.98 C112.86,11.6733368 112.753334,12.3399968 112.54,12.98 C112.326666,13.6200032 112.016669,14.1833309 111.61,14.67 C111.203331,15.1566691 110.70667,15.5466652 110.12,15.84 C109.53333,16.1333348 108.86667,16.28 108.12,16.28 C107.506664,16.28 106.926669,16.1566679 106.38,15.91 C105.833331,15.6633321 105.406668,15.3266688 105.1,14.9 L105.06,14.9 L105.06,20.8 L101.78,20.8 L101.78,6.04 L104.9,6.04 L104.9,7.26 L104.96,7.26 C105.266668,6.859998 105.689997,6.5100015 106.23,6.21 C106.770003,5.9099985 107.406663,5.76 108.14,5.76 C108.860004,5.76 109.51333,5.8999986 110.1,6.18 C110.68667,6.4600014 111.183331,6.8399976 111.59,7.32 C111.996669,7.8000024 112.309999,8.3566635 112.53,8.99 C112.750001,9.6233365 112.86,10.2866632 112.86,10.98 Z M109.68,10.98 C109.68,10.6599984 109.63,10.3466682 109.53,10.04 C109.429999,9.7333318 109.283334,9.4633345 109.09,9.23 C108.896666,8.9966655 108.653335,8.8066674 108.36,8.66 C108.066665,8.5133326 107.726669,8.44 107.34,8.44 C106.966665,8.44 106.633335,8.5133326 106.34,8.66 C106.046665,8.8066674 105.796668,8.9999988 105.59,9.24 C105.383332,9.4800012 105.223334,9.7533318 105.11,10.06 C104.996666,10.3666682 104.94,10.6799984 104.94,11 C104.94,11.3200016 104.996666,11.6333318 105.11,11.94 C105.223334,12.2466682 105.383332,12.5199988 105.59,12.76 C105.796668,13.0000012 106.046665,13.1933326 106.34,13.34 C106.633335,13.4866674 106.966665,13.56 107.34,13.56 C107.726669,13.56 108.066665,13.4866674 108.36,13.34 C108.653335,13.1933326 108.896666,13.0000012 109.09,12.76 C109.283334,12.5199988 109.429999,12.2433349 109.53,11.93 C109.63,11.6166651 109.68,11.3000016 109.68,10.98 Z M126,10.98 C126,11.6733368 125.893334,12.3399968 125.68,12.98 C125.466666,13.6200032 125.156669,14.1833309 124.75,14.67 C124.343331,15.1566691 123.84667,15.5466652 123.26,15.84 C122.67333,16.1333348 122.00667,16.28 121.26,16.28 C120.646664,16.28 120.066669,16.1566679 119.52,15.91 C118.973331,15.6633321 118.546668,15.3266688 118.24,14.9 L118.2,14.9 L118.2,20.8 L114.92,20.8 L114.92,6.04 L118.04,6.04 L118.04,7.26 L118.1,7.26 C118.406668,6.859998 118.829997,6.5100015 119.37,6.21 C119.910003,5.9099985 120.546663,5.76 121.28,5.76 C122.000004,5.76 122.65333,5.8999986 123.24,6.18 C123.82667,6.4600014 124.323331,6.8399976 124.73,7.32 C125.136669,7.8000024 125.449999,8.3566635 125.67,8.99 C125.890001,9.6233365 126,10.2866632 126,10.98 Z M122.82,10.98 C122.82,10.6599984 122.77,10.3466682 122.67,10.04 C122.569999,9.7333318 122.423334,9.4633345 122.23,9.23 C122.036666,8.9966655 121.793335,8.8066674 121.5,8.66 C121.206665,8.5133326 120.866669,8.44 120.48,8.44 C120.106665,8.44 119.773335,8.5133326 119.48,8.66 C119.186665,8.8066674 118.936668,8.9999988 118.73,9.24 C118.523332,9.4800012 118.363334,9.7533318 118.25,10.06 C118.136666,10.3666682 118.08,10.6799984 118.08,11 C118.08,11.3200016 118.136666,11.6333318 118.25,11.94 C118.363334,12.2466682 118.523332,12.5199988 118.73,12.76 C118.936668,13.0000012 119.186665,13.1933326 119.48,13.34 C119.773335,13.4866674 120.106665,13.56 120.48,13.56 C120.866669,13.56 121.206665,13.4866674 121.5,13.34 C121.793335,13.1933326 122.036666,13.0000012 122.23,12.76 C122.423334,12.5199988 122.569999,12.2433349 122.67,11.93 C122.77,11.6166651 122.82,11.3000016 122.82,10.98 Z"></path>
                </g>
                <g transform="translate(1.000000, 0.000000)" fill="#8091A5" id="The-Python">
                    <path d="M7.02,16 L1.4,16 L1.5,15.42 C1.8200016,15.2999994 2.1366651,15.2033337 2.45,15.13 C2.7633349,15.0566663 3.1066648,14.9933336 3.48,14.94 L6,3.04 L2.94,3.04 L1.28,5.9 L0.76,5.9 C0.7733334,5.633332 0.8033331,5.3300017 0.85,4.99 C0.8966669,4.6499983 0.9466664,4.3033351 1,3.95 C1.0533336,3.5966649 1.1099997,3.2500017 1.17,2.91 C1.2300003,2.5699983 1.293333,2.266668 1.36,2 L12.96,2 C12.9066664,2.266668 12.8400004,2.566665 12.76,2.9 C12.6799996,3.233335 12.5933338,3.5766649 12.5,3.93 C12.4066662,4.2833351 12.3100005,4.6299983 12.21,4.97 C12.1099995,5.3100017 12.0133338,5.6199986 11.92,5.9 L11.4,5.9 L10.98,3.04 L7.92,3.04 L5.4,14.94 C5.7200016,15.006667 6.0233319,15.073333 6.31,15.14 C6.5966681,15.206667 6.8666654,15.2999994 7.12,15.42 L7.02,16 Z M13.26,2.18 L13.26,1.72 C13.460001,1.6399996 13.6833321,1.5566671 13.93,1.47 C14.1766679,1.3833329 14.433332,1.3033337 14.7,1.23 C14.966668,1.1566663 15.2266654,1.0966669 15.48,1.05 C15.7333346,1.0033331 15.9733322,0.9733334 16.2,0.96 L16.62,1.14 L14.82,9.54 L14.92,9.54 C15.1733346,9.006664 15.4599984,8.5100023 15.78,8.05 C16.1000016,7.5899977 16.4366649,7.1900017 16.79,6.85 C17.1433351,6.5099983 17.5133314,6.2433343 17.9,6.05 C18.2866686,5.8566657 18.679998,5.76 19.08,5.76 C19.6933364,5.76 20.1366653,5.9366649 20.41,6.29 C20.6833347,6.6433351 20.82,7.0799974 20.82,7.6 C20.82,7.9600018 20.786667,8.3466646 20.72,8.76 C20.653333,9.1733354 20.5733338,9.5733314 20.48,9.96 L19.34,14.88 L20.82,14.88 L20.82,15.4 C20.553332,15.6133344 20.2333352,15.786666 19.86,15.92 C19.4866648,16.053334 19.1133352,16.12 18.74,16.12 C18.3533314,16.12 18.0866674,16.0400008 17.94,15.88 C17.7933326,15.7199992 17.72,15.5466676 17.72,15.36 C17.72,15.1199988 17.753333,14.8500015 17.82,14.55 C17.886667,14.2499985 17.953333,13.9466682 18.02,13.64 L18.74,10.3 C18.8333338,9.8866646 18.9166663,9.5000018 18.99,9.14 C19.0633337,8.7799982 19.1,8.433335 19.1,8.1 C19.1,7.7933318 19.033334,7.5333344 18.9,7.32 C18.766666,7.1066656 18.5866678,7 18.36,7 C17.9466646,7 17.5466686,7.1466652 17.16,7.44 C16.7733314,7.7333348 16.413335,8.0866646 16.08,8.5 C15.746665,8.9133354 15.4533346,9.3433311 15.2,9.79 C14.9466654,10.2366689 14.753334,10.6066652 14.62,10.9 L13.56,16 L11.88,16 L14.62,2.36 L13.26,2.18 Z M29.9,14.22 C29.7799994,14.4733346 29.6066678,14.7199988 29.38,14.96 C29.1533322,15.2000012 28.8866682,15.4166657 28.58,15.61 C28.2733318,15.8033343 27.9266686,15.9566661 27.54,16.07 C27.1533314,16.1833339 26.7400022,16.24 26.3,16.24 C25.1933278,16.24 24.3433363,15.9233365 23.75,15.29 C23.1566637,14.6566635 22.86,13.7800056 22.86,12.66 C22.86,11.7133286 22.993332,10.8200042 23.26,9.98 C23.526668,9.1399958 23.8999976,8.4066698 24.38,7.78 C24.8600024,7.1533302 25.4433299,6.6600018 26.13,6.3 C26.8166701,5.9399982 27.5799958,5.76 28.42,5.76 C29.0600032,5.76 29.6099977,5.9233317 30.07,6.25 C30.5300023,6.5766683 30.76,7.0599968 30.76,7.7 C30.76,8.6466714 30.2900047,9.3933306 29.35,9.94 C28.4099953,10.4866694 26.8933438,10.8399992 24.8,11 C24.7466664,11.2266678 24.7100001,11.4466656 24.69,11.66 C24.6699999,11.8733344 24.66,12.079999 24.66,12.28 C24.66,13.080004 24.8633313,13.7333308 25.27,14.24 C25.6766687,14.7466692 26.2733294,15 27.06,15 C27.3133346,15 27.5633321,14.9600004 27.81,14.88 C28.0566679,14.7999996 28.2899989,14.7000006 28.51,14.58 C28.7300011,14.4599994 28.9299991,14.333334 29.11,14.2 C29.2900009,14.066666 29.446666,13.9466672 29.58,13.84 L29.9,14.22 Z M27.8,6.62 C27.2266638,6.6333334 26.6933358,6.9033307 26.2,7.43 C25.7066642,7.9566693 25.2866684,8.8599936 24.94,10.14 C26.2333398,10.0999998 27.2399964,9.8766687 27.96,9.47 C28.6800036,9.0633313 29.04,8.5000036 29.04,7.78 C29.04,7.4999986 28.9566675,7.2400012 28.79,7 C28.6233325,6.7599988 28.2933358,6.6333334 27.8,6.62 Z M39.38,14.94 C39.7266684,14.9800002 40.0499985,15.0433329 40.35,15.13 C40.6500015,15.2166671 40.9266654,15.3133328 41.18,15.42 L41.08,16 L35.6,16 L35.7,15.42 C36.0066682,15.286666 36.3033319,15.186667 36.59,15.12 C36.8766681,15.053333 37.1666652,14.9933336 37.46,14.94 L39.96,3.08 C39.6666652,3.0266664 39.3933346,2.9566671 39.14,2.87 C38.8866654,2.7833329 38.6466678,2.6866672 38.42,2.58 L38.56,2 L40.36,2 C40.893336,2 41.4766635,1.9733336 42.11,1.92 C42.7433365,1.8666664 43.3466638,1.84 43.92,1.84 C44.5600032,1.84 45.1499973,1.9033327 45.69,2.03 C46.2300027,2.1566673 46.6899981,2.3566653 47.07,2.63 C47.4500019,2.9033347 47.7466656,3.2433313 47.96,3.65 C48.1733344,4.0566687 48.28,4.5399972 48.28,5.1 C48.28,5.8866706 48.1366681,6.61333 47.85,7.28 C47.5633319,7.94667 47.1500027,8.5266642 46.61,9.02 C46.0699973,9.5133358 45.4200038,9.8999986 44.66,10.18 C43.8999962,10.4600014 43.053338,10.6 42.12,10.6 L41.79,10.6 C41.6366659,10.6 41.4700009,10.5966667 41.29,10.59 C41.1099991,10.5833333 40.9300009,10.5733334 40.75,10.56 C40.5699991,10.5466666 40.4200006,10.5333334 40.3,10.52 L39.38,14.94 Z M43.4,2.88 C43.0799984,2.88 42.7966679,2.8899999 42.55,2.91 C42.3033321,2.9300001 42.0866676,2.9533332 41.9,2.98 L40.54,9.46 C40.606667,9.4733334 40.7033327,9.4866666 40.83,9.5 C40.9566673,9.5133334 41.0899993,9.5233333 41.23,9.53 C41.3700007,9.5366667 41.5033327,9.5433333 41.63,9.55 C41.7566673,9.5566667 41.8599996,9.56 41.94,9.56 C43.3266736,9.56 44.3733298,9.1633373 45.08,8.37 C45.7866702,7.5766627 46.14,6.4933402 46.14,5.12 C46.14,4.786665 46.1033337,4.4833347 46.03,4.21 C45.9566663,3.9366653 45.8166677,3.700001 45.61,3.5 C45.4033323,3.299999 45.1233351,3.1466672 44.77,3.04 C44.4166649,2.9333328 43.9600028,2.88 43.4,2.88 Z M49.98,7.16 L48.7,7 L48.7,6.5 C48.766667,6.4466664 48.8766659,6.3800004 49.03,6.3 C49.1833341,6.2199996 49.359999,6.1400004 49.56,6.06 C49.760001,5.9799996 49.9666656,5.9100003 50.18,5.85 C50.3933344,5.7899997 50.5933324,5.76 50.78,5.76 C51.0600014,5.76 51.2633327,5.8299993 51.39,5.97 C51.5166673,6.1100007 51.613333,6.2933322 51.68,6.52 L53.34,13.52 L53.4,14.72 L53.44,14.72 L53.9,13.54 C54.0733342,13.1666648 54.2499991,12.7566689 54.43,12.31 C54.6100009,11.8633311 54.7866658,11.4133356 54.96,10.96 C55.1333342,10.5066644 55.2933326,10.0600022 55.44,9.62 C55.5866674,9.1799978 55.7133328,8.7733352 55.82,8.4 C55.82,8.2533326 55.8033335,8.0600012 55.77,7.82 C55.7366665,7.5799988 55.7000002,7.3400012 55.66,7.1 C55.6199998,6.8599988 55.5800002,6.6366677 55.54,6.43 C55.4999998,6.2233323 55.4666668,6.0800004 55.44,6 C55.6266676,5.9199996 55.8266656,5.8600002 56.04,5.82 C56.2533344,5.7799998 56.459999,5.76 56.66,5.76 C57.060002,5.76 57.4133318,5.8399992 57.72,6 C57.3066646,7.6533416 56.7433369,9.3066584 56.03,10.96 C55.3166631,12.6133416 54.526671,14.2933248 53.66,16 C52.9399964,17.400007 52.2200036,18.4466632 51.5,19.14 C50.7799964,19.8333368 49.9666712,20.18 49.06,20.18 C48.859999,20.18 48.6700009,20.1533336 48.49,20.1 C48.3099991,20.0466664 48.120001,19.9666672 47.92,19.86 C47.9066666,19.7133326 47.9199998,19.5466676 47.96,19.36 C48.0000002,19.1733324 48.0633329,18.9866676 48.15,18.8 C48.2366671,18.6133324 48.3499993,18.4400008 48.49,18.28 C48.6300007,18.1199992 48.7866658,17.9933338 48.96,17.9 L50.58,18.74 C50.6733338,18.673333 50.7933326,18.5766673 50.94,18.45 C51.0866674,18.3233327 51.2399992,18.1500011 51.4,17.93 C51.5600008,17.7099989 51.7199992,17.4433349 51.88,17.13 C52.0400008,16.8166651 52.1933326,16.4400022 52.34,16 L49.98,7.16 Z M58.4,6.48 C58.666668,6.3333326 58.9499985,6.2000006 59.25,6.08 C59.5500015,5.9599994 59.8466652,5.866667 60.14,5.8 L60.46,4.28 C60.6466676,4.1333326 60.8633321,4.0033339 61.11,3.89 C61.3566679,3.7766661 61.613332,3.6666672 61.88,3.56 L62.3,3.8 L61.82,6 L64.3,6 C64.3266668,6.1600008 64.3266668,6.3266658 64.3,6.5 C64.2733332,6.6733342 64.2066672,6.8399992 64.1,7 L61.62,7 L60.36,12.8 C60.3066664,13.0533346 60.2666668,13.2766657 60.24,13.47 C60.2133332,13.6633343 60.2,13.8399992 60.2,14 C60.2,14.3466684 60.299999,14.5999992 60.5,14.76 C60.700001,14.9200008 60.9199988,15 61.16,15 C61.493335,15 61.8499981,14.9366673 62.23,14.81 C62.6100019,14.6833327 62.9599984,14.5400008 63.28,14.38 L63.5,14.74 C63.3799994,14.9133342 63.2000012,15.0866658 62.96,15.26 C62.7199988,15.4333342 62.4500015,15.5933326 62.15,15.74 C61.8499985,15.8866674 61.5366683,16.0066662 61.21,16.1 C60.8833317,16.1933338 60.5733348,16.24 60.28,16.24 C59.6933304,16.24 59.233335,16.106668 58.9,15.84 C58.566665,15.573332 58.4,15.1600028 58.4,14.6 C58.4,14.4133324 58.4166665,14.2066678 58.45,13.98 C58.4833335,13.7533322 58.5266664,13.5200012 58.58,13.28 L59.9,7 L58.38,7 L58.4,6.48 Z M66.12,2.18 L66.12,1.72 C66.320001,1.6399996 66.5433321,1.5566671 66.79,1.47 C67.0366679,1.3833329 67.293332,1.3033337 67.56,1.23 C67.826668,1.1566663 68.0866654,1.0966669 68.34,1.05 C68.5933346,1.0033331 68.8333322,0.9733334 69.06,0.96 L69.48,1.14 L67.68,9.54 L67.78,9.54 C68.0333346,9.006664 68.3199984,8.5100023 68.64,8.05 C68.9600016,7.5899977 69.2966649,7.1900017 69.65,6.85 C70.0033351,6.5099983 70.3733314,6.2433343 70.76,6.05 C71.1466686,5.8566657 71.539998,5.76 71.94,5.76 C72.5533364,5.76 72.9966653,5.9366649 73.27,6.29 C73.5433347,6.6433351 73.68,7.0799974 73.68,7.6 C73.68,7.9600018 73.646667,8.3466646 73.58,8.76 C73.513333,9.1733354 73.4333338,9.5733314 73.34,9.96 L72.2,14.88 L73.68,14.88 L73.68,15.4 C73.413332,15.6133344 73.0933352,15.786666 72.72,15.92 C72.3466648,16.053334 71.9733352,16.12 71.6,16.12 C71.2133314,16.12 70.9466674,16.0400008 70.8,15.88 C70.6533326,15.7199992 70.58,15.5466676 70.58,15.36 C70.58,15.1199988 70.613333,14.8500015 70.68,14.55 C70.746667,14.2499985 70.813333,13.9466682 70.88,13.64 L71.6,10.3 C71.6933338,9.8866646 71.7766663,9.5000018 71.85,9.14 C71.9233337,8.7799982 71.96,8.433335 71.96,8.1 C71.96,7.7933318 71.893334,7.5333344 71.76,7.32 C71.626666,7.1066656 71.4466678,7 71.22,7 C70.8066646,7 70.4066686,7.1466652 70.02,7.44 C69.6333314,7.7333348 69.273335,8.0866646 68.94,8.5 C68.606665,8.9133354 68.3133346,9.3433311 68.06,9.79 C67.8066654,10.2366689 67.613334,10.6066652 67.48,10.9 L66.42,16 L64.74,16 L67.48,2.36 L66.12,2.18 Z M75.74,12.28 C75.74,11.5733298 75.8499989,10.8366705 76.07,10.07 C76.2900011,9.3033295 76.6266644,8.6000032 77.08,7.96 C77.5333356,7.3199968 78.0999966,6.7933354 78.78,6.38 C79.4600034,5.9666646 80.2533288,5.76 81.16,5.76 C82.2000052,5.76 82.9833307,6.0799968 83.51,6.72 C84.0366693,7.3600032 84.3,8.3066604 84.3,9.56 C84.3,10.4400044 84.1733346,11.2833293 83.92,12.09 C83.6666654,12.8966707 83.3133356,13.6066636 82.86,14.22 C82.4066644,14.8333364 81.8600032,15.3233315 81.22,15.69 C80.5799968,16.0566685 79.8733372,16.24 79.1,16.24 C78.0733282,16.24 77.2566697,15.9100033 76.65,15.25 C76.0433303,14.5899967 75.74,13.6000066 75.74,12.28 Z M80.76,6.62 C80.1066634,6.6333334 79.5733354,6.8466646 79.16,7.26 C78.7466646,7.6733354 78.4200012,8.1866636 78.18,8.8 C77.9399988,9.4133364 77.7733338,10.0733298 77.68,10.78 C77.5866662,11.4866702 77.54,12.1333304 77.54,12.72 C77.54,13.5066706 77.7133316,14.1466642 78.06,14.64 C78.4066684,15.1333358 78.8733304,15.38 79.46,15.38 C79.926669,15.38 80.3433315,15.2033351 80.71,14.85 C81.0766685,14.4966649 81.3899987,14.0300029 81.65,13.45 C81.9100013,12.8699971 82.1099993,12.213337 82.25,11.48 C82.3900007,10.746663 82.46,10.0066704 82.46,9.26 C82.46,8.4733294 82.3233347,7.8400024 82.05,7.36 C81.7766653,6.8799976 81.3466696,6.6333334 80.76,6.62 Z M92.82,10.3 C92.9133338,9.8866646 92.9966663,9.5033351 93.07,9.15 C93.1433337,8.7966649 93.18,8.4466684 93.18,8.1 C93.18,7.7933318 93.1100007,7.5333344 92.97,7.32 C92.8299993,7.1066656 92.6066682,7 92.3,7 C91.9399982,7 91.5733352,7.1466652 91.2,7.44 C90.8266648,7.7333348 90.4800016,8.0866646 90.16,8.5 C89.8399984,8.9133354 89.5500013,9.3433311 89.29,9.79 C89.0299987,10.2366689 88.833334,10.6066652 88.7,10.9 L87.64,16 L85.96,16 L87.72,7.16 L86.5,6.98 L86.54,6.48 C86.7266676,6.3866662 86.9366655,6.2966671 87.17,6.21 C87.4033345,6.1233329 87.6433321,6.046667 87.89,5.98 C88.1366679,5.913333 88.3766655,5.8600002 88.61,5.82 C88.8433345,5.7799998 89.059999,5.76 89.26,5.76 L89.66,6 L88.9,9.54 L89,9.54 C89.2533346,9.006664 89.5433317,8.5100023 89.87,8.05 C90.1966683,7.5899977 90.5433315,7.1900017 90.91,6.85 C91.2766685,6.5099983 91.659998,6.2433343 92.06,6.05 C92.460002,5.8566657 92.8666646,5.76 93.28,5.76 C93.8400028,5.76 94.2499987,5.9366649 94.51,6.29 C94.7700013,6.6433351 94.9,7.086664 94.9,7.62 C94.9,7.9133348 94.866667,8.2799978 94.8,8.72 C94.733333,9.1600022 94.6533338,9.5733314 94.56,9.96 L93.42,14.88 L94.9,14.88 L94.9,15.4 C94.633332,15.6133344 94.3100019,15.786666 93.93,15.92 C93.5499981,16.053334 93.1800018,16.12 92.82,16.12 C92.4333314,16.12 92.1666674,16.0400008 92.02,15.88 C91.8733326,15.7199992 91.8,15.5466676 91.8,15.36 C91.8,15.1066654 91.833333,14.8300015 91.9,14.53 C91.966667,14.2299985 92.033333,13.9266682 92.1,13.62 L92.82,10.3 Z"></path>
                </g>
            </g>
        </g>
    </g>
</svg>